Patient4_TMGait_0pt6_02_right_48_GRF.mot
version=1
nRows=45
nColumns=19
inDegrees=no
endheader
time	F1x	F1y	F1z	M1x	M1y	M1z	F2x	F2y	F2z	M2x	M2y	M2z	EC1x	EC1y	EC1z	EC2x	EC2y	EC2z
57.94	21.8082	814.8793	60.89	-296.8382	-63.5482	935.0047	-13.2782	13.07	4.8106	3.2618	-0.89806	20.1182	-0.0592	0.0182	-0.0073	-0.0462	0.0165	0.9585
57.9521	17.0236	804.5899	63.8766	-293.0656	-67.1248	913.2382	-8.8931	10.0704	3.3395	2.6707	-0.62216	15.0413	-0.0592	0.0182	-0.0073	-0.0462	0.0165	0.9585
57.9643	13.5889	790.8642	66.2987	-288.0756	-69.6345	888.2061	-5.2569	7.6081	2.0381	2.2095	-0.31882	10.8882	-0.0592	0.0182	-0.0073	-0.0462	0.0165	0.9585
57.9764	11.4853	774.3604	67.9932	-282.0823	-70.983	861.2592	-2.5397	5.808	1.006	1.892	-0.045383	7.8445	-0.0592	0.0182	-0.0073	-0.0462	0.0165	0.9585
57.9886	10.3387	756.296	68.9366	-275.5096	-71.3097	833.9602	-0.71184	4.6465	0.26875	1.7052	0.17012	5.8601	-0.0592	0.0182	-0.0073	-0.0462	0.0165	0.9585
58.0007	9.7225	738.2003	69.2351	-268.909	-70.8832	807.9499	0.36636	3.9919	-0.20666	1.6136	0.32918	4.7196	-0.0592	0.0182	-0.0073	-0.0462	0.0165	0.9585
58.0129	9.34	721.689	69.016	-262.8788	-69.9343	784.7481	0.86972	3.6441	-0.46728	1.564	0.43421	4.1152	-0.0592	0.0182	-0.0073	-0.0462	0.0165	0.9585
58.025	9.0402	708.179	68.4086	-257.9556	-68.6344	765.5614	0.96914	3.3944	-0.56609	1.4984	0.49148	3.7424	-0.0592	0.0182	-0.0073	-0.0462	0.0165	0.9585
58.0371	8.8596	698.7337	67.5517	-254.5479	-67.0934	751.1824	0.82566	2.9978	-0.55608	1.3453	0.50803	3.2581	-0.0592	0.0182	-0.0073	-0.0462	0.0165	0.9585
58.0493	8.9285	693.9565	66.5517	-252.8893	-65.3524	741.9463	0.54223	2.2258	-0.46684	1.0316	0.48267	2.3451	-0.0592	0.0182	-0.0073	-0.0462	0.0165	0.9585
58.0614	9.4232	693.8983	65.5191	-253.0058	-63.4395	737.6533	0.24154	0.84154	-0.33478	0.47939	0.41476	0.66876	-0.0592	0.0182	-0.0073	-0.0462	0.0165	0.9585
58.0736	10.5243	698.0968	64.5023	-254.7232	-61.3287	737.6601	-0.026849	-1.3236	-0.16817	-0.3703	0.28914	-1.9851	-0.0592	0.0182	-0.0073	-0.0462	0.0165	0.9585
58.0857	12.3491	705.5281	63.5589	-257.6517	-59.0315	740.8376	-0.16949	-4.365	0.014207	-1.5487	0.090493	-5.7484	-0.0592	0.0182	-0.0073	-0.0462	0.0165	0.9585
58.0979	14.8763	714.6734	62.6878	-261.2085	-56.5541	745.6304	-0.13691	-8.1621	0.21362	-3.0123	-0.20216	-10.4544	-0.0592	0.0182	-0.0073	-0.0462	0.0165	0.9585
58.11	17.9839	723.7028	61.9171	-264.6854	-53.9752	750.2546	0.17416	-12.3532	0.40818	-4.6194	-0.59539	-15.6581	-0.0592	0.0182	-0.0073	-0.0462	0.0165	0.9585
58.1221	21.4906	730.8016	61.2356	-267.3766	-51.368	753.0015	0.81873	-16.1144	0.56657	-6.055	-1.0679	-20.3276	-0.0592	0.0182	-0.0073	-0.0462	0.0165	0.9585
58.1343	25.1959	734.5203	60.675	-268.7121	-48.8586	752.5307	1.8947	-18.0847	0.6256	-6.794	-1.5675	-22.7871	-0.0592	0.0182	-0.0073	-0.0462	0.0165	0.9585
58.1464	28.9278	733.9202	60.2452	-268.3218	-46.5443	748.0119	3.4141	-16.1695	0.50287	-6.0375	-1.9816	-20.4219	-0.0592	0.0182	-0.0073	-0.0462	0.0165	0.9585
58.1586	32.5855	728.514	59.9673	-266.0205	-44.5028	739.0255	5.362	-7.5273	0.082545	-2.6989	-2.1316	-9.6956	-0.0592	0.0182	-0.0073	-0.0462	0.0165	0.9585
58.1707	36.1141	718.1684	59.8083	-261.7756	-42.7323	725.4601	7.5488	11.3878	-0.78389	4.5742	-1.7239	13.8412	-0.0592	0.0182	-0.0073	-0.0462	0.0165	0.9585
58.1829	39.5361	702.9109	59.7079	-255.6363	-41.1745	707.3202	9.6192	44.4214	-2.2573	17.254	-0.37195	54.9958	-0.0592	0.0182	-0.0073	-0.0462	0.0165	0.9585
58.195	42.837	682.7195	59.55	-247.6497	-39.7193	684.5621	10.9172	95.0668	-4.4837	36.6715	2.398	118.1264	-0.0592	0.0182	-0.0073	-0.0462	0.0165	0.9585
58.2071	45.9326	657.2014	59.1597	-237.746	-38.2195	656.7684	10.4517	165.1614	-7.5249	63.523	7.0722	205.511	-0.0592	0.0182	-0.0073	-0.0462	0.0165	0.9585
58.2193	48.5905	625.458	58.2793	-225.6762	-36.4945	623.0872	6.823	253.0439	-11.2953	97.1579	14.0655	315.0816	-0.0592	0.0182	-0.0073	-0.0462	0.0165	0.9585
58.2314	50.4741	586.2599	56.621	-211.065	-34.3723	582.3557	-1.5339	351.1797	-15.5032	134.6732	23.5174	437.4623	-0.0592	0.0182	-0.0073	-0.0462	0.0165	0.9585
58.2436	51.1216	538.6056	53.9597	-193.5964	-31.7855	533.6512	-14.2123	446.0708	-20.1812	170.8249	35.2004	555.906	-0.0592	0.0182	-0.0073	-0.0462	0.0165	0.9585
58.2557	50.1121	482.4695	50.2259	-173.2734	-28.8166	476.9776	-28.1861	524.1058	-26.9834	200.2915	49.573	653.3199	-0.0592	0.0182	-0.0073	-0.0462	0.0165	0.9585
58.2679	47.1728	419.4495	45.5815	-150.6218	-25.7062	413.9308	-41.0971	581.748	-35.4119	221.6161	65.1177	725.0481	-0.0592	0.0182	-0.0073	-0.0462	0.0165	0.9585
58.28	42.3522	352.3398	40.3598	-126.5763	-22.7329	347.2354	-51.2722	622.5597	-44.4332	236.2071	79.9825	775.248	-0.0592	0.0182	-0.0073	-0.0462	0.0165	0.9585
58.2921	36.0517	284.5149	34.949	-102.2835	-20.0999	280.1603	-58.3549	652.1371	-52.7325	246.3072	92.462	810.8858	-0.0592	0.0182	-0.0073	-0.0462	0.0165	0.9585
58.3043	28.8067	219.4827	29.5162	-78.9703	-17.7546	216.0702	-62.4935	674.7743	-59.1446	253.6847	101.3163	837.2854	-0.0592	0.0182	-0.0073	-0.0462	0.0165	0.9585
58.3164	21.3033	160.5176	24.2769	-57.7966	-15.6418	158.079	-64.2664	693.4152	-63.4766	259.5272	106.5279	858.246	-0.0592	0.0182	-0.0073	-0.0462	0.0165	0.9585
58.3286	14.2994	110.1108	19.3038	-39.6668	-13.5505	108.5658	-63.7753	709.7113	-65.9743	264.4742	108.5792	875.7607	-0.0592	0.0182	-0.0073	-0.0462	0.0165	0.9585
58.3407	8.4313	69.5317	14.7298	-25.0569	-11.3686	68.7284	-61.5586	723.7336	-67.732	268.5108	108.9312	890.0816	-0.0592	0.0182	-0.0073	-0.0462	0.0165	0.9585
58.3529	4.0051	38.9295	10.5668	-14.0372	-8.9967	38.6703	-58.0767	734.5174	-69.0919	271.2857	108.307	900.0882	-0.0592	0.0182	-0.0073	-0.0462	0.0165	0.9585
58.365	1.0292	17.5082	6.9266	-6.3265	-6.5501	17.624	-54.0993	741.5999	-70.6315	272.6197	107.6361	905.4342	-0.0592	0.0182	-0.0073	-0.0462	0.0165	0.9585
58.3771	-0.70292	3.9324	3.9285	-1.4424	-4.2446	4.2623	-50.0285	745.2608	-72.0117	272.6837	106.8237	906.4766	-0.0592	0.0182	-0.0073	-0.0462	0.0165	0.9585
58.3893	-1.5494	-3.5007	1.7623	1.2358	-2.4054	-3.0574	-46.3496	746.2582	-73.3821	271.8173	106.1758	904.269	-0.0592	0.0182	-0.0073	-0.0462	0.0165	0.9585
58.4014	-1.7676	-6.611	0.31917	2.3536	-1.0417	-6.1448	-43.1422	745.4711	-74.2039	270.4401	105.1923	899.8073	-0.0592	0.0182	-0.0073	-0.0462	0.0165	0.9585
58.4136	-1.6561	-6.9428	-0.52309	2.4715	-0.14569	-6.4707	-40.5901	743.7164	-74.5372	268.9126	103.9544	894.1287	-0.0592	0.0182	-0.0073	-0.0462	0.0165	0.9585
58.4257	-1.345	-5.756	-0.92236	2.0388	0.38102	-5.3056	-38.6579	741.6508	-74.0249	267.5492	102.1009	887.9656	-0.0592	0.0182	-0.0073	-0.0462	0.0165	0.9585
58.4379	-1.0173	-3.9187	-1.0467	1.3724	0.64253	-3.4591	-37.2994	739.9202	-72.9124	266.5987	99.8596	882.0958	-0.0592	0.0182	-0.0073	-0.0462	0.0165	0.9585
58.45	-0.67885	-2.0104	-0.98062	0.67918	0.71177	-1.56	-36.4525	739.0401	-71.0886	266.2749	97.1196	877.0676	-0.0592	0.0182	-0.0073	-0.0462	0.0165	0.9585
58.4621	-0.43716	-0.31933	-0.85508	0.068011	0.68323	0.14661	-35.9923	739.5018	-68.8556	266.7411	94.1446	873.4225	-0.0592	0.0182	-0.0073	-0.0462	0.0165	0.9585
58.4743	-0.22295	0.98942	-0.67478	-0.40271	0.58101	1.4441	-35.7151	741.6908	-66.2094	268.1224	90.8726	871.5166	-0.0592	0.0182	-0.0073	-0.0462	0.0165	0.9585
